<svg width="115" height="29" viewBox="0 0 115 29" fill="none" xmlns="http://www.w3.org/2000/svg">
<path d="M60.8065 14.5L39.0565 27.0574L39.0565 1.94263L60.8065 14.5Z" fill="white"/>
<path d="M72.5 14.5L50.75 27.0574L50.75 1.94263L72.5 14.5Z" fill="white"/>
<path d="M83.2581 14.5L61.5081 27.0574L61.5081 1.94263L83.2581 14.5Z" fill="white"/>
<path d="M70.629 2.34771L91.6774 14.5L70.629 26.6523L70.629 2.34771Z" stroke="white" stroke-width="0.467742"/>
<path d="M82.3226 2.34771L103.371 14.5L82.3226 26.6523L82.3226 2.34771Z" stroke="white" stroke-width="0.467742"/>
<path d="M93.0806 2.34771L114.129 14.5L93.0806 26.6523L93.0806 2.34771Z" stroke="white" stroke-width="0.467742"/>
<path d="M7.48387 2.34771L28.5323 14.5L7.48387 26.6523L7.48387 2.34771Z" stroke="white" stroke-width="0.467742"/>
<path d="M19.1774 2.34771L40.2258 14.5L19.1774 26.6523L19.1774 2.34771Z" stroke="white" stroke-width="0.467742"/>
<path d="M29.9355 2.34771L50.9839 14.5L29.9355 26.6523L29.9355 2.34771Z" stroke="white" stroke-width="0.467742"/>
</svg>
