<svg width="566" height="89" viewBox="0 0 566 89" fill="none" xmlns="http://www.w3.org/2000/svg">
<g filter="url(#filter0_dd_263_826)">
<path d="M15 52.8889V20.4815L21.4815 14H130.432L136.914 20.4815H478.58L485.062 14H525.185L541.234 30.0494V52.8889L530.123 64H368.086L364.074 59.9876H335.37L331.358 64H26.1111L15 52.8889Z" fill="black" fill-opacity="0.5" shape-rendering="crispEdges"/>
<path d="M15 52.8889V20.4815L21.4815 14H130.432L136.914 20.4815H478.58L485.062 14H525.185L541.234 30.0494V52.8889L530.123 64H368.086L364.074 59.9876H335.37L331.358 64H26.1111L15 52.8889Z" stroke="#2CD2E7" stroke-width="1.85185" shape-rendering="crispEdges"/>
</g>
<path d="M506.804 45.2174L513.68 52.0932H520.555" stroke="white" stroke-width="0.877756"/>
<rect x="495.247" y="26.3457" width="20.1884" height="20.1884" fill="white"/>
<path d="M505.487 30.7345V42.4379" stroke="black" stroke-width="0.877756"/>
<path d="M499.635 36.5862L511.339 36.5862" stroke="black" stroke-width="0.877756"/>
<defs>
<filter id="filter0_dd_263_826" x="0.493855" y="0.111139" width="565.123" height="88.8888" filterUnits="userSpaceOnUse" color-interpolation-filters="sRGB">
<feFlood flood-opacity="0" result="BackgroundImageFix"/>
<feColorMatrix in="SourceAlpha" type="matrix" values="0 0 0 0 0 0 0 0 0 0 0 0 0 0 0 0 0 0 127 0" result="hardAlpha"/>
<feOffset dx="4.93827" dy="6.17284"/>
<feComposite in2="hardAlpha" operator="out"/>
<feColorMatrix type="matrix" values="0 0 0 0 0 0 0 0 0 0 0 0 0 0 0 0 0 0 1 0"/>
<feBlend mode="normal" in2="BackgroundImageFix" result="effect1_dropShadow_263_826"/>
<feColorMatrix in="SourceAlpha" type="matrix" values="0 0 0 0 0 0 0 0 0 0 0 0 0 0 0 0 0 0 127 0" result="hardAlpha"/>
<feOffset dx="4.93827" dy="5.55555"/>
<feGaussianBlur stdDeviation="9.25926"/>
<feComposite in2="hardAlpha" operator="out"/>
<feColorMatrix type="matrix" values="0 0 0 0 0.172549 0 0 0 0 0.823529 0 0 0 0 0.905882 0 0 0 0.25 0"/>
<feBlend mode="normal" in2="effect1_dropShadow_263_826" result="effect2_dropShadow_263_826"/>
<feBlend mode="normal" in="SourceGraphic" in2="effect2_dropShadow_263_826" result="shape"/>
</filter>
</defs>
</svg>
